<svg width="732" height="844" viewBox="0 0 732 844" fill="none" xmlns="http://www.w3.org/2000/svg">
<path d="M605.062 337.626H562.874V327.536C577.056 311.498 586.361 291.743 589.695 270.596C593.029 249.448 590.253 227.788 581.693 208.165C573.134 188.542 559.147 171.772 541.379 159.829C523.612 147.886 502.802 141.267 481.4 140.751C472.428 109.427 455.755 80.8489 432.902 57.624C415.042 39.345 393.695 24.8372 370.125 14.9606C346.555 5.08396 321.242 0.0394281 295.687 0.125973C243.11 0.125973 194.12 21.7119 156.819 61.0869C138.512 55.2538 118.898 54.906 100.395 60.0864C81.8925 65.2668 65.3105 75.7489 52.6936 90.2403C40.0768 104.732 31.9767 122.599 29.3923 141.638C26.8079 160.678 29.8521 180.057 38.1495 197.388C24.8341 209.206 14.5182 224.019 8.05214 240.607C1.58606 257.195 -0.845018 275.082 0.959306 292.794C2.76363 310.506 8.75169 327.535 18.4299 342.479C28.108 357.422 41.1992 369.851 56.6241 378.741V745.438C56.652 771.537 67.0321 796.559 85.4866 815.013C103.941 833.468 128.963 843.848 155.062 843.876H464.437C490.535 843.848 515.557 833.468 534.012 815.013C552.466 796.559 562.846 771.537 562.874 745.438V731.376H605.062C638.617 731.339 670.787 717.992 694.514 694.265C718.241 670.538 731.587 638.368 731.624 604.813V464.188C731.587 430.633 718.241 398.463 694.514 374.736C670.787 351.009 638.617 337.663 605.062 337.626ZM225.374 703.251C225.374 710.71 222.411 717.864 217.137 723.138C211.862 728.413 204.708 731.376 197.249 731.376C189.79 731.376 182.636 728.413 177.362 723.138C172.087 717.864 169.124 710.71 169.124 703.251V422.001C169.124 414.542 172.087 407.388 177.362 402.114C182.636 396.839 189.79 393.876 197.249 393.876C204.708 393.876 211.862 396.839 217.137 402.114C222.411 407.388 225.374 414.542 225.374 422.001V703.251ZM337.874 703.251C337.874 710.71 334.911 717.864 329.637 723.138C324.362 728.413 317.208 731.376 309.749 731.376C302.29 731.376 295.136 728.413 289.862 723.138C284.587 717.864 281.624 710.71 281.624 703.251V422.001C281.624 414.542 284.587 407.388 289.862 402.114C295.136 396.839 302.29 393.876 309.749 393.876C317.208 393.876 324.362 396.839 329.637 402.114C334.911 407.388 337.874 414.542 337.874 422.001V703.251ZM450.374 703.251C450.374 710.71 447.411 717.864 442.137 723.138C436.862 728.413 429.708 731.376 422.249 731.376C414.79 731.376 407.636 728.413 402.362 723.138C397.087 717.864 394.124 710.71 394.124 703.251V422.001C394.124 414.542 397.087 407.388 402.362 402.114C407.636 396.839 414.79 393.876 422.249 393.876C429.708 393.876 436.862 396.839 442.137 402.114C447.411 407.388 450.374 414.542 450.374 422.001V703.251ZM478.499 309.501C463.857 309.501 442.376 300.395 431.583 289.62C426.311 284.345 419.16 281.379 411.702 281.376H197.249C191.487 281.389 185.869 283.171 181.153 286.482C176.437 289.792 172.852 294.471 170.882 299.886C158.876 332.722 129.398 337.626 112.874 337.626C97.9557 337.626 83.6483 331.7 73.0994 321.151C62.5504 310.602 56.6241 296.294 56.6241 281.376C56.6241 266.458 62.5504 252.15 73.0994 241.601C83.6483 231.052 97.9557 225.126 112.874 225.126C113.032 225.126 128.905 225.724 141.702 235.321C144.657 237.537 148.019 239.15 151.597 240.066C155.175 240.983 158.898 241.186 162.555 240.664C166.211 240.141 169.729 238.904 172.907 237.022C176.085 235.14 178.861 232.651 181.077 229.696C183.293 226.742 184.906 223.379 185.822 219.801C186.739 216.223 186.942 212.5 186.42 208.844C185.897 205.187 184.66 201.67 182.778 198.492C180.896 195.314 178.407 192.537 175.452 190.321C157.229 177.033 135.417 169.558 112.874 168.876C104.594 168.881 96.3402 169.807 88.2647 171.636C85.474 165.218 84.3239 158.206 84.9179 151.232C85.512 144.259 87.8316 137.543 91.6678 131.689C95.504 125.836 100.736 121.028 106.893 117.7C113.05 114.373 119.938 112.629 126.937 112.626C133.581 112.594 140.137 114.147 146.062 117.155C151.986 120.163 157.108 124.54 161.003 129.923C164.173 134.295 166.944 138.942 169.282 143.81C170.046 150.977 173.531 157.578 179.021 162.25C184.51 166.922 191.583 169.307 198.781 168.915C205.978 168.523 212.75 165.382 217.699 160.141C222.647 154.9 225.395 147.959 225.374 140.751C225.374 128.851 219.028 114.085 206.46 96.8056C205.651 95.6982 204.702 94.6084 203.911 93.5361C229.575 69.4541 261.655 56.376 295.687 56.376C313.772 56.3239 331.685 59.9035 348.361 66.9027C365.038 73.9018 380.139 84.178 392.771 97.1221C408.568 113.331 420.231 133.106 426.772 154.774C433.314 176.442 434.542 199.367 430.353 221.61C429.662 225.239 429.693 228.969 430.444 232.585C431.195 236.202 432.651 239.636 434.729 242.69C436.807 245.744 439.466 248.359 442.554 250.385C445.643 252.411 449.101 253.809 452.73 254.499C454.468 254.826 456.234 254.99 458.003 254.991C464.542 254.985 470.875 252.699 475.912 248.529C480.949 244.358 484.375 238.563 485.601 232.14C487.742 220.883 488.895 209.461 489.046 198.003C502.794 200.633 515.068 208.295 523.469 219.491C531.87 230.687 535.795 244.613 534.477 258.548C533.158 272.483 526.692 285.427 516.341 294.849C505.989 304.271 492.497 309.495 478.499 309.501ZM675.374 604.813C675.374 623.461 667.966 641.346 654.78 654.532C641.594 667.718 623.71 675.126 605.062 675.126H562.874V393.876H605.062C623.71 393.876 641.594 401.284 654.78 414.47C667.966 427.656 675.374 445.54 675.374 464.188V604.813Z" fill="#FFCC00"/>
</svg>
